# xmcd
#
# Track frame offsets:
#	150
#	6167
#	20335
#	33895
#	45485
#	60060
#	74810
#	89080
#	100615
#	114707
#	126252
#	137292
#	149670
#
# Disc length: 2043 seconds
#
# Revision: 0
# Processed by: cddbd v1.5.2PL0 Copyright (c) Steve Scherf et al.
# Submitted via: EasyCDDAExtractor 16.0.6.1
#
DISCID=ae07f90d
DTITLE=Συλλογικός δίσκος - Η εκδίκηση της γυφτιάς
DYEAR=2011
DGENRE=Έντεχνη
TTITLE0=Σαββόπουλος Διονύσης - Βρέχει στην Εθνική Οδό [Ν. Ξυδάκης-Μ. Ρασούλης]
TTITLE1=Παπάζογλου Νίκος - Κυρ διευθυντά των δίσκων [Ν. Ξυδάκης-Μ. Ρασούλης]
TTITLE2=Παπάζογλου Νίκος - Τρελλή κι αδέσποτη [Ν. Ξυδάκης-Μ. Ρασούλης]
TTITLE3=Διαμαντή Σοφία - Σαν το δασάκι [Ν. Ξυδάκης-Μ. Ρασούλης]
TTITLE4=Παπάζογλου Νίκος - Στην Πόλυ [Ν. Ξυδάκης-Μ. Ρασούλης]
TTITLE5=Παπάζογλου Νίκος - Μη μ' αποκαλείς τεμπέλη [Ν. Ξυδάκης-Μ. Ρασούλης]
TTITLE6=Κοντογιάννης Δημήτρης-Διαμαντή Σ.-Παπάζογλου Ν. - Χαβαλεδιάρικο [Ν. Ξυ
TTITLE6=δάκης-Μ. Ρασούλης]
TTITLE7=Διαμαντή Σοφία-Παπάζογλου Νίκος - Πρώτα να ξεκαθαρίσεις [Ν. Ξυδάκης-Μ.
TTITLE7=Ρασούλης]
TTITLE8=Παπάζογλου Νίκος - Κανείς εδώ δεν τραγουδά [Ν. Ξυδάκης-Τ. Σιμώτας]
TTITLE9=Παπάζογλου Νίκος-Κοντογιάννης Δημήτρης - Του Χάρου το παράπονο [Ν. Ξυδ
TTITLE9=άκης-Μ. Ρασούλης]
TTITLE10=Παπάζογλου Νίκος - Από περιέργεια υπάρχω [Ν. Ξυδάκης-Μ. Ρασούλης]
TTITLE11=Παπάζογλου Νίκος - Το τροχαίο [Ν. Ξυδάκης-Μ. Ρασούλης]
TTITLE12=Σαββόπουλος Διονύσης - Μετανάστης στην αγκάλη σου [Ν. Ξυδάκης-Μ. Ρασο
TTITLE12=ύλης]
EXTD=
EXTT0=
EXTT1=
EXTT2=
EXTT3=
EXTT4=
EXTT5=
EXTT6=
EXTT7=
EXTT8=
EXTT9=
EXTT10=
EXTT11=
EXTT12=
PLAYORDER=
